<?xml version="1.0" encoding="UTF-8"?>
<svg version="1.1" xmlns="http://www.w3.org/2000/svg" width="1280" height="60">
<path d="M0 0 C422.4 0 844.8 0 1280 0 C1280 19.8 1280 39.6 1280 60 C857.6 60 435.2 60 0 60 C0 40.2 0 20.4 0 0 Z " fill="#FEFEFE" transform="translate(0,0)"/>
<path d="M0 0 C1.796875 1.32421875 1.796875 1.32421875 3 3 C3 8.8996357 0.93526089 12.80378016 -3 17 C-4.95851344 18.39355764 -6.95127113 19.74282547 -9 21 C-9.33 21.66 -9.66 22.32 -10 23 C-13.20962956 24.06987652 -15.68899262 24.20081156 -19.0625 24.25 C-20.65771484 24.28867187 -20.65771484 24.28867187 -22.28515625 24.328125 C-23.62900391 24.16570313 -23.62900391 24.16570313 -25 24 C-27 21 -27 21 -26.875 17.6875 C-25.91722456 13.65116064 -24.64073201 11.18441213 -22 8 C-21.01 8 -20.02 8 -19 8 C-18.7215625 7.13375 -18.7215625 7.13375 -18.4375 6.25 C-14.37285179 -0.11205807 -7.0146606 -1.36123659 0 0 Z " fill="#EAECF1" transform="translate(589,18)"/>
<path d="M0 0 C-1.98 1.32 -3.96 2.64 -6 4 C-3.525 4.495 -3.525 4.495 -1 5 C-1.33 5.99 -1.66 6.98 -2 8 C-2.99 8.33 -3.98 8.66 -5 9 C-6.68749704 11.54672255 -6.68749704 11.54672255 -8.1875 14.5625 C-8.71730469 15.57441406 -9.24710938 16.58632813 -9.79296875 17.62890625 C-10.19128906 18.41136719 -10.58960938 19.19382812 -11 20 C-11.99 19.67 -12.98 19.34 -14 19 C-12.02 15.37 -10.04 11.74 -8 8 C-8.66 8 -9.32 8 -10 8 C-10 7.01 -10 6.02 -10 5 C-12.31 5.66 -14.62 6.32 -17 7 C-17.99 10.96 -18.98 14.92 -20 19 C-21.32 19.33 -22.64 19.66 -24 20 C-24 19.01 -24 18.02 -24 17 C-25.11375 17.4640625 -25.11375 17.4640625 -26.25 17.9375 C-28.5123958 18.81160747 -30.64974079 19.44256673 -33 20 C-32.59007812 19.45730469 -32.18015625 18.91460937 -31.7578125 18.35546875 C-31.21898437 17.64003906 -30.68015625 16.92460938 -30.125 16.1875 C-29.59132813 15.47980469 -29.05765625 14.77210937 -28.5078125 14.04296875 C-27.29185219 12.39543703 -26.13583859 10.70375789 -25 9 C-28.08851102 9.78105168 -28.08851102 9.78105168 -30.0625 12.0625 C-30.701875 12.701875 -31.34125 13.34125 -32 14 C-32.66 14 -33.32 14 -34 14 C-34 15.98 -34 17.96 -34 20 C-34.99 20 -35.98 20 -37 20 C-37.33 18.68 -37.66 17.36 -38 16 C-38.66 17.32 -39.32 18.64 -40 20 C-40.99 20 -41.98 20 -43 20 C-41.45454854 14.52067211 -38.84456788 9.88570819 -36 5 C-33.03 5 -30.06 5 -27 5 C-27 5.66 -27 6.32 -27 7 C-25.01853549 6.55170486 -23.03985789 6.09107502 -21.0625 5.625 C-19.96035156 5.36976562 -18.85820313 5.11453125 -17.72265625 4.8515625 C-16.82417969 4.57054687 -15.92570313 4.28953125 -15 4 C-14.67 3.34 -14.34 2.68 -14 2 C-11.01745874 0.01163916 -9.86191192 -0.34336635 -6.4375 -0.6875 C-5.65246094 -0.77386719 -4.86742187 -0.86023438 -4.05859375 -0.94921875 C-2 -1 -2 -1 0 0 Z " fill="#2D80BD" transform="translate(674,21)"/>
<path d="M0 0 C-0.39803561 2.88575819 -0.79009069 3.82189513 -3.0625 5.75 C-3.701875 6.1625 -4.34125 6.575 -5 7 C-3.66667905 10.99996286 -1.5042173 11.83782337 2 14 C1.67 14.66 1.34 15.32 1 16 C-0.95766281 16.08082094 -2.91626728 16.13910778 -4.875 16.1875 C-6.51082031 16.23970703 -6.51082031 16.23970703 -8.1796875 16.29296875 C-9.11039063 16.19628906 -10.04109375 16.09960938 -11 16 C-13 13 -13 13 -12.875 9.6875 C-11.91662446 5.64863164 -10.60195469 3.21417933 -8 0 C-4.71023192 -1.09658936 -3.28696233 -0.79953138 0 0 Z " fill="#EBE9EE" transform="translate(575,26)"/>
<path d="M0 0 C2.97 0 5.94 0 9 0 C8.57352731 5.68630257 6.06314998 10.93685002 2 15 C0.48071962 15.07179964 -1.04167482 15.08392007 -2.5625 15.0625 C-3.38878906 15.05347656 -4.21507812 15.04445313 -5.06640625 15.03515625 C-5.70449219 15.02355469 -6.34257813 15.01195312 -7 15 C-5.63408831 11.45756548 -4.09068516 8.07372071 -2.375 4.6875 C-1.70597656 3.36298828 -1.70597656 3.36298828 -1.0234375 2.01171875 C-0.68570313 1.34785156 -0.34796875 0.68398438 0 0 Z " fill="#1A77BB" transform="translate(626,26)"/>
<path d="M0 0 C1.134375 0.020625 2.26875 0.04125 3.4375 0.0625 C3.13525205 5.95633493 0.63166374 10.95776405 -3.5625 15.0625 C-6.5784365 15.85844733 -8.4108245 15.55155309 -11.5625 15.0625 C-11.00178208 11.10943863 -9.84044197 8.57608993 -7.5625 5.3125 C-7.02625 4.53390625 -6.49 3.7553125 -5.9375 2.953125 C-3.83875202 0.06734653 -3.83875202 0.06734653 0 0 Z " fill="#E9333B" transform="translate(679.5625,25.9375)"/>
<path d="M0 0 C-1.98 1.32 -3.96 2.64 -6 4 C-3.525 4.495 -3.525 4.495 -1 5 C-1.33 5.99 -1.66 6.98 -2 8 C-2.99 8.33 -3.98 8.66 -5 9 C-6.68749704 11.54672255 -6.68749704 11.54672255 -8.1875 14.5625 C-8.71730469 15.57441406 -9.24710938 16.58632813 -9.79296875 17.62890625 C-10.19128906 18.41136719 -10.58960938 19.19382812 -11 20 C-11.99 19.67 -12.98 19.34 -14 19 C-12.02 15.37 -10.04 11.74 -8 8 C-8.66 8 -9.32 8 -10 8 C-10 7.01 -10 6.02 -10 5 C-10.66386719 5.2165625 -11.32773437 5.433125 -12.01171875 5.65625 C-12.89472656 5.9346875 -13.77773438 6.213125 -14.6875 6.5 C-15.99267578 6.91765625 -15.99267578 6.91765625 -17.32421875 7.34375 C-19.99391677 7.99850805 -22.26396684 8.11831495 -25 8 C-22.47785208 5.78050983 -20.72931763 4.92401898 -17.4375 4 C-14.07598892 3.33703383 -14.07598892 3.33703383 -12.5703125 1.484375 C-10.53853932 -0.43620661 -9.19183915 -0.51404343 -6.4375 -0.75 C-5.65246094 -0.82734375 -4.86742187 -0.9046875 -4.05859375 -0.984375 C-2 -1 -2 -1 0 0 Z " fill="#EA2C33" transform="translate(674,21)"/>
<path d="M0 0 C0.85722656 -0.01675781 1.71445312 -0.03351562 2.59765625 -0.05078125 C4.9375 0.3125 4.9375 0.3125 6.74609375 1.62890625 C7.9375 3.3125 7.9375 3.3125 7.9375 6.5625 C6.56506747 11.70912199 4.46911094 15.53041362 0.05078125 18.640625 C-1.61559236 19.60056436 -3.33571544 20.46603698 -5.0625 21.3125 C-4.45504603 16.45286821 -2.33491033 12.5719482 -0.0625 8.3125 C0.9275 8.3125 1.9175 8.3125 2.9375 8.3125 C3.2675 9.3025 3.5975 10.2925 3.9375 11.3125 C4.5975 8.6725 5.2575 6.0325 5.9375 3.3125 C-0.34877393 3.04352646 -0.34877393 3.04352646 -6.0625 5.3125 C-7.3825 5.3125 -8.7025 5.3125 -10.0625 5.3125 C-9.0625 2.3125 -9.0625 2.3125 -7.31640625 1.14453125 C-4.75310752 0.19828753 -2.72855634 0.01234641 0 0 Z " fill="#1A77BA" transform="translate(584.0625,17.6875)"/>
<path d="M0 0 C1.32 0 2.64 0 4 0 C3.67 2.31 3.34 4.62 3 7 C4.32 4.69 5.64 2.38 7 0 C7.66 0 8.32 0 9 0 C8.29778615 3.27445371 7.16564262 6.15462008 5.75 9.1875 C5.35296875 10.06792969 4.9559375 10.94835938 4.546875 11.85546875 C3 14 3 14 0.328125 14.80078125 C-0.44015625 14.86652344 -1.2084375 14.93226562 -2 15 C-1.67 12.69 -1.34 10.38 -1 8 C-2.32 10.31 -3.64 12.62 -5 15 C-5.99 14.67 -6.98 14.34 -8 14 C-7.043419 12.22821947 -6.08467012 10.45760924 -5.125 8.6875 C-4.59132813 7.70136719 -4.05765625 6.71523438 -3.5078125 5.69921875 C-2 3 -2 3 0 0 Z " fill="#1F7ABB" transform="translate(615,26)"/>
<path d="M0 0 C2.64 0 5.28 0 8 0 C7.38983051 5.49152542 7.38983051 5.49152542 5.5625 7.875 C4 9 4 9 2 9 C2 10.98 2 12.96 2 15 C0.68 15 -0.64 15 -2 15 C-2.33 14.01 -2.66 13.02 -3 12 C-3.99 13.485 -3.99 13.485 -5 15 C-5.99 14.67 -6.98 14.34 -8 14 C-6.68 11.36 -5.36 8.72 -4 6 C-3.34 6 -2.68 6 -2 6 C-2 6.66 -2 7.32 -2 8 C0.49552484 7.21869929 0.49552484 7.21869929 3 6 C3.33 5.01 3.66 4.02 4 3 C2.35 3.66 0.7 4.32 -1 5 C-0.67 3.35 -0.34 1.7 0 0 Z " fill="#EA3B42" transform="translate(698,26)"/>
<path d="M0 0 C1.19625 0.185625 2.3925 0.37125 3.625 0.5625 C3.295 1.5525 2.965 2.5425 2.625 3.5625 C1.655625 3.68625 0.68625 3.81 -0.3125 3.9375 C-1.323125 4.14375 -2.33375 4.35 -3.375 4.5625 C-3.705 5.2225 -4.035 5.8825 -4.375 6.5625 C-2.725 6.5625 -1.075 6.5625 0.625 6.5625 C0.295 7.5525 -0.035 8.5425 -0.375 9.5625 C-2.685 9.5625 -4.995 9.5625 -7.375 9.5625 C-7.375 10.5525 -7.375 11.5425 -7.375 12.5625 C-6.055 12.5625 -4.735 12.5625 -3.375 12.5625 C-3.375 13.5525 -3.375 14.5425 -3.375 15.5625 C-6.015 15.5625 -8.655 15.5625 -11.375 15.5625 C-11.03353103 8.90385516 -7.65131995 -0.0407708 0 0 Z " fill="#1776B9" transform="translate(609.375,25.4375)"/>
<path d="M0 0 C0.99 0.33 1.98 0.66 3 1 C1.02 4.63 -0.96 8.26 -3 12 C-1.68 12 -0.36 12 1 12 C1.2475 11.319375 1.495 10.63875 1.75 9.9375 C3.24197908 6.43134917 5.06835511 3.28379632 7 0 C7.99 0.33 8.98 0.66 10 1 C8.88182488 3.14964682 7.75592552 5.29457566 6.625 7.4375 C6.30789063 8.04916016 5.99078125 8.66082031 5.6640625 9.29101562 C3.2265625 13.88671875 3.2265625 13.88671875 1 15 C-1.3329866 15.04022391 -3.66706666 15.04320247 -6 15 C-5.54979057 9.14727744 -2.96160773 4.91779881 0 0 Z " fill="#E9373F" transform="translate(686,26)"/>
<path d="M0 0 C0 0.99 0 1.98 0 3 C-1.134375 3.12375 -2.26875 3.2475 -3.4375 3.375 C-5.2009375 3.684375 -5.2009375 3.684375 -7 4 C-7.33 4.66 -7.66 5.32 -8 6 C-6.35 6 -4.7 6 -3 6 C-3.58118849 9.92302229 -5.09515903 12.31860833 -8 15 C-10.80103307 15.43381201 -13.14152935 15.23820589 -16 15 C-15.67 14.01 -15.34 13.02 -15 12 C-13.865625 11.87625 -12.73125 11.7525 -11.5625 11.625 C-10.386875 11.41875 -9.21125 11.2125 -8 11 C-7.67 10.34 -7.34 9.68 -7 9 C-8.32 9 -9.64 9 -11 9 C-10.67470941 6.07238473 -10.40430823 3.67384706 -8.875 1.125 C-5.98014 -0.611916 -3.29140103 -0.18630572 0 0 Z " fill="#E93139" transform="translate(717,26)"/>
<path d="M0 0 C3.375 -0.125 3.375 -0.125 7 0 C7.66 0.66 8.32 1.32 9 2 C8.64700993 5.44165321 7.95418308 7.06872538 6 10 C7.30096474 13.67480584 7.30096474 13.67480584 9 17 C5.00499382 15.6302836 2.19990508 13.74277578 -1 11 C0 8 0 8 2.0625 6.5 C2.701875 6.005 3.34125 5.51 4 5 C4 4.01 4 3.02 4 2 C2.68 1.34 1.36 0.68 0 0 Z " fill="#E93941" transform="translate(570,24)"/>
<path d="M0 0 C-1.11561881 2.51014232 -2.24421627 4.28121873 -4.0625 6.375 C-6.24394277 9.33050311 -6.66369691 11.38474176 -7 15 C-3.7 15 -0.4 15 3 15 C2.67 15.66 2.34 16.32 2 17 C0.37581255 17.08090971 -1.24951745 17.13914995 -2.875 17.1875 C-3.77992188 17.22230469 -4.68484375 17.25710937 -5.6171875 17.29296875 C-6.79667969 17.14794922 -6.79667969 17.14794922 -8 17 C-10 14 -10 14 -9.875 10.6875 C-8.91662446 6.64863164 -7.60195469 4.21417933 -5 1 C-2 0 -2 0 0 0 Z " fill="#207BBB" transform="translate(572,25)"/>
<path d="M0 0 C0.66 0 1.32 0 2 0 C2 0.66 2 1.32 2 2 C4.31 1.34 6.62 0.68 9 0 C8.67 0.99 8.34 1.98 8 3 C5.9375 3.6875 5.9375 3.6875 4 4 C4 5.98 4 7.96 4 10 C3.01 10 2.02 10 1 10 C0.67 8.68 0.34 7.36 0 6 C-0.66 7.32 -1.32 8.64 -2 10 C-2.99 10 -3.98 10 -5 10 C-3.85569823 6.12697862 -2.76679902 2.99736561 0 0 Z " fill="#207ABA" transform="translate(636,31)"/>
<path d="M0 0 C2.97 0 5.94 0 9 0 C9 0.66 9 1.32 9 2 C9.99 2.33 10.98 2.66 12 3 C11.67 3.66 11.34 4.32 11 5 C9.01354224 5.40632091 7.00946222 5.72949547 5 6 C3.33195323 6.32635698 1.66475686 6.65725594 0 7 C0 6.34 0 5.68 0 5 C-0.66 4.67 -1.32 4.34 -2 4 C-1.34 2.68 -0.68 1.36 0 0 Z " fill="#A58DA5" transform="translate(638,26)"/>
<path d="M0 0 C0.66 0.66 1.32 1.32 2 2 C1.57847656 2.69867187 1.15695312 3.39734375 0.72265625 4.1171875 C0.17480469 5.02726562 -0.37304688 5.93734375 -0.9375 6.875 C-1.75541016 8.23238281 -1.75541016 8.23238281 -2.58984375 9.6171875 C-3.43898017 11.05201636 -4.25437724 12.50875448 -5 14 C-5.66 14 -6.32 14 -7 14 C-7 13.34 -7 12.68 -7 12 C-8.32 12 -9.64 12 -11 12 C-11 11.01 -11 10.02 -11 9 C-8.69 9 -6.38 9 -4 9 C-4 8.34 -4 7.68 -4 7 C-5.32 6.67 -6.64 6.34 -8 6 C-7.67 5.01 -7.34 4.02 -7 3 C-6.030625 2.87625 -5.06125 2.7525 -4.0625 2.625 C-2.5465625 2.315625 -2.5465625 2.315625 -1 2 C-0.67 1.34 -0.34 0.68 0 0 Z " fill="#D4E3EE" transform="translate(613,26)"/>
<path d="M0 0 C0.85722656 -0.01675781 1.71445312 -0.03351562 2.59765625 -0.05078125 C4.9375 0.3125 4.9375 0.3125 6.734375 1.6640625 C8.38169106 3.92109944 8.15832723 5.58896418 7.9375 8.3125 C7.2775 7.9825 6.6175 7.6525 5.9375 7.3125 C5.9375 5.9925 5.9375 4.6725 5.9375 3.3125 C-0.34877393 3.04352646 -0.34877393 3.04352646 -6.0625 5.3125 C-7.3825 5.3125 -8.7025 5.3125 -10.0625 5.3125 C-9.0625 2.3125 -9.0625 2.3125 -7.31640625 1.14453125 C-4.75310752 0.19828753 -2.72855634 0.01234641 0 0 Z " fill="#3787C0" transform="translate(584.0625,17.6875)"/>
<path d="M0 0 C0.99 0 1.98 0 3 0 C1.58104674 5.53391773 -1.09708237 10.79829442 -5 15 C-6.32 15 -7.64 15 -9 15 C-8 12 -8 12 -6.1875 10.3125 C-3.28380999 7.24288485 -1.74142506 3.81631449 0 0 Z " fill="#267DBB" transform="translate(599,26)"/>
<path d="M0 0 C0.66 0.33 1.32 0.66 2 1 C2 1.99 2 2.98 2 4 C3.32 3.67 4.64 3.34 6 3 C5.67 4.32 5.34 5.64 5 7 C3.35 7.33 1.7 7.66 0 8 C0 7.34 0 6.68 0 6 C-0.66 6 -1.32 6 -2 6 C-2.433125 7.423125 -2.433125 7.423125 -2.875 8.875 C-4 12 -4 12 -6 14 C-6.33 13.34 -6.66 12.68 -7 12 C-5.56640625 9.1796875 -5.56640625 9.1796875 -3.5625 5.875 C-2.57443359 4.23144531 -2.57443359 4.23144531 -1.56640625 2.5546875 C-1.04949219 1.71164063 -0.53257812 0.86859375 0 0 Z " fill="#F5CACC" transform="translate(696,26)"/>
<path d="M0 0 C2.97 0.495 2.97 0.495 6 1 C7 4 7 4 5.890625 6.48046875 C5.34921875 7.37378906 4.8078125 8.26710938 4.25 9.1875 C3.71890625 10.08855469 3.1878125 10.98960938 2.640625 11.91796875 C2.09921875 12.60503906 1.5578125 13.29210938 1 14 C0.01 14 -0.98 14 -2 14 C-2.33 13.34 -2.66 12.68 -3 12 C-0.54385965 7 -0.54385965 7 1 5 C1.99 4.67 2.98 4.34 4 4 C4.33 3.34 4.66 2.68 5 2 C3.02 2 1.04 2 -1 2 C-0.67 1.34 -0.34 0.68 0 0 Z " fill="#F7D8DA" transform="translate(668,24)"/>
<path d="M0 0 C2.64 0 5.28 0 8 0 C7.6875 2.875 7.6875 2.875 7 6 C6.01 6.66 5.02 7.32 4 8 C3.67 7.34 3.34 6.68 3 6 C3.33 5.01 3.66 4.02 4 3 C2.35 3.66 0.7 4.32 -1 5 C-0.67 3.35 -0.34 1.7 0 0 Z " fill="#EA3038" transform="translate(698,26)"/>
<path d="M0 0 C2.97 0 5.94 0 9 0 C8.67 1.65 8.34 3.3 8 5 C7.34 5 6.68 5 6 5 C6 4.34 6 3.68 6 3 C4.02463255 3.34786708 4.02463255 3.34786708 2 4 C1.67 4.66 1.34 5.32 1 6 C0.34 6 -0.32 6 -1 6 C-0.67 4.02 -0.34 2.04 0 0 Z " fill="#1C76B9" transform="translate(626,26)"/>
<path d="M0 0 C0.99 0 1.98 0 3 0 C1.64199529 2.96530497 0.07571737 5.29131271 -2.0625 7.75 C-2.85333984 8.67039062 -2.85333984 8.67039062 -3.66015625 9.609375 C-4.10230469 10.06828125 -4.54445313 10.5271875 -5 11 C-5.33 11 -5.66 11 -6 11 C-6 9.02 -6 7.04 -6 5 C-5.38125 4.731875 -4.7625 4.46375 -4.125 4.1875 C-1.7004767 3.04443152 -1.7004767 3.04443152 0 0 Z " fill="#DBE8F1" transform="translate(646,30)"/>
<path d="M0 0 C0.99 0.33 1.98 0.66 3 1 C0.69 5.29 -1.62 9.58 -4 14 C-4.66 12.68 -5.32 11.36 -6 10 C-4.8828125 7.421875 -4.8828125 7.421875 -3.125 4.75 C-2.26261719 3.41195313 -2.26261719 3.41195313 -1.3828125 2.046875 C-0.92648437 1.37140625 -0.47015625 0.6959375 0 0 Z " fill="#E93B42" transform="translate(693,26)"/>
<path d="M0 0 C2.01822917 0.06510417 4.03645833 0.13020833 6.0546875 0.1953125 C5.7246875 1.1853125 5.3946875 2.1753125 5.0546875 3.1953125 C4.1059375 3.3190625 3.1571875 3.4428125 2.1796875 3.5703125 C-1.03198441 3.91218427 -1.03198441 3.91218427 -2.9453125 6.1953125 C-3.9353125 6.5253125 -4.9253125 6.8553125 -5.9453125 7.1953125 C-3.42094902 0.34346878 -3.42094902 0.34346878 0 0 Z " fill="#247DBC" transform="translate(606.9453125,25.8046875)"/>
<path d="M0 0 C0.66 0.66 1.32 1.32 2 2 C1.34 3.98 0.68 5.96 0 8 C1.32 8 2.64 8 4 8 C3.67 8.99 3.34 9.98 3 11 C1.02 11 -0.96 11 -3 11 C-3 7.75888653 -2.25432529 5.95135362 -1 3 C-0.67 2.01 -0.34 1.02 0 0 Z " fill="#F6D1D2" transform="translate(706,27)"/>
<path d="M0 0 C-1.05875074 3.40312738 -2.00902154 6.01353231 -4 9 C-5.32 9 -6.64 9 -8 9 C-6.53333333 3.5 -6.53333333 3.5 -4 1.125 C-2 0 -2 0 0 0 Z " fill="#F9E1E2" transform="translate(691,29)"/>
<path d="M0 0 C0.99 0 1.98 0 3 0 C2.47557578 3.7758544 1.67345333 6.22372155 -1 9 C-1.99 9 -2.98 9 -4 9 C-2.94124926 5.59687262 -1.99097846 2.98646769 0 0 Z " fill="#E0EBF2" transform="translate(628,29)"/>
<path d="M0 0 C0.99 0 1.98 0 3 0 C2.47557578 3.7758544 1.67345333 6.22372155 -1 9 C-1.99 9 -2.98 9 -4 9 C-2.94124926 5.59687262 -1.99097846 2.98646769 0 0 Z " fill="#F9DDDF" transform="translate(676,29)"/>
<path d="M0 0 C2.97 0 5.94 0 9 0 C9 0.99 9 1.98 9 3 C5.7 3.33 2.4 3.66 -1 4 C-0.67 2.68 -0.34 1.36 0 0 Z " fill="#2176B6" transform="translate(638,26)"/>
<path d="M0 0 C-0.33 0.99 -0.66 1.98 -1 3 C-3.0625 3.6875 -3.0625 3.6875 -5 4 C-5 5.98 -5 7.96 -5 10 C-5.99 10 -6.98 10 -8 10 C-8.20086443 6.28400809 -8.1519437 5.22791555 -6 2 C-3.83252916 0.71306419 -2.53199972 0 0 0 Z " fill="#0E71B7" transform="translate(645,31)"/>
<path d="M0 0 C1.32 0.33 2.64 0.66 4 1 C4 1.99 4 2.98 4 4 C2.43883181 4.33951619 0.87598662 4.67132544 -0.6875 5 C-1.99267578 5.2784375 -1.99267578 5.2784375 -3.32421875 5.5625 C-5.93712964 5.98972047 -8.35813038 6.07616201 -11 6 C-7.63576723 3.03947516 -4.30840713 2.07710178 0 1 C0 0.67 0 0.34 0 0 Z " fill="#C46676" transform="translate(660,23)"/>
<path d="M0 0 C0.66 0.33 1.32 0.66 2 1 C2.40729228 3.32156597 2.74438677 5.6568787 3 8 C1.35 8.33 -0.3 8.66 -2 9 C-1.34 6.03 -0.68 3.06 0 0 Z " fill="#1675B9" transform="translate(615,32)"/>
<path d="M0 0 C-1.44253657 3.36591866 -3.33264727 5.51047079 -6 8 C-6 7.34 -6 6.68 -6 6 C-6.66 5.67 -7.32 5.34 -8 5 C-5.72541886 1.64228499 -4.30291326 0 0 0 Z " fill="#3887C0" transform="translate(572,25)"/>
<path d="M0 0 C0.33 0 0.66 0 1 0 C0.25 6.625 0.25 6.625 -2 10 C-2.99 9.67 -3.98 9.34 -5 9 C-3.35 6.03 -1.7 3.06 0 0 Z " fill="#E93E45" transform="translate(665,31)"/>
<path d="M0 0 C2.64 0.33 5.28 0.66 8 1 C7.67 1.99 7.34 2.98 7 4 C4.69 4 2.38 4 0 4 C0 2.68 0 1.36 0 0 Z " fill="#EA262D" transform="translate(680,37)"/>
<path d="M0 0 C0.33 0.66 0.66 1.32 1 2 C1.66 2.33 2.32 2.66 3 3 C1.68 5.31 0.36 7.62 -1 10 C-1.99 9.34 -2.98 8.68 -4 8 C-2.68 5.36 -1.36 2.72 0 0 Z " fill="#3281BC" transform="translate(631,29)"/>
<path d="M0 0 C0.33 0.99 0.66 1.98 1 3 C0.01 3.99 -0.98 4.98 -2 6 C0.97 6.495 0.97 6.495 4 7 C4 7.33 4 7.66 4 8 C1.36 8 -1.28 8 -4 8 C-3.50168276 4.31245243 -2.89932357 2.39509338 0 0 Z " fill="#E93E45" transform="translate(672,33)"/>
<path d="M0 0 C2 0 4 0 6 0 C5.67 1.32 5.34 2.64 5 4 C3.35 4.33 1.7 4.66 0 5 C-0.5625 3.0625 -0.5625 3.0625 -1 1 C-0.67 0.67 -0.34 0.34 0 0 Z " fill="#F19094" transform="translate(696,29)"/>
<path d="M0 0 C-3.20336822 2.83374881 -5.78087253 3.5205537 -10 4 C-9.67 3.01 -9.34 2.02 -9 1 C-6.04335481 -0.4783226 -3.25770263 -0.06032783 0 0 Z " fill="#237CBC" transform="translate(584,19)"/>
<path d="M0 0 C0.66 1.32 1.32 2.64 2 4 C0.625 6.75 0.625 6.75 -1 9 C-1.99 8.67 -2.98 8.34 -4 8 C-2.68 5.36 -1.36 2.72 0 0 Z " fill="#2F83BD" transform="translate(611,32)"/>
<path d="M0 0 C-0.33 1.32 -0.66 2.64 -1 4 C-3.64 4 -6.28 4 -9 4 C-8 2 -8 2 -5.0625 0.875 C-2 0 -2 0 0 0 Z " fill="#EA2931" transform="translate(678,36)"/>
<path d="M0 0 C-2.125 1.625 -2.125 1.625 -5 3 C-8.3125 2.1875 -8.3125 2.1875 -11 1 C-11 0.67 -11 0.34 -11 0 C-9.54263913 -0.19491452 -8.08405407 -0.38069358 -6.625 -0.5625 C-5.81289063 -0.66691406 -5.00078125 -0.77132813 -4.1640625 -0.87890625 C-2 -1 -2 -1 0 0 Z " fill="#9A5673" transform="translate(674,21)"/>
<path d="M0 0 C1.32 0 2.64 0 4 0 C3.49396008 2.16874252 3.00016187 3.99967627 2 6 C1.34 6 0.68 6 0 6 C0 4.02 0 2.04 0 0 Z " fill="#EB3941" transform="translate(710,32)"/>
<path d="M0 0 C0.66 1.32 1.32 2.64 2 4 C0.625 6 0.625 6 -1 8 C-1.66 8 -2.32 8 -3 8 C-1.125 2.25 -1.125 2.25 0 0 Z " fill="#277FBC" transform="translate(624,30)"/>
<path d="M0 0 C0.66 0 1.32 0 2 0 C2.33 1.98 2.66 3.96 3 6 C1.68 6 0.36 6 -1 6 C-0.67 4.02 -0.34 2.04 0 0 Z " fill="#E9272F" transform="translate(707,29)"/>
<path d="M0 0 C0.66 1.32 1.32 2.64 2 4 C1.34 4.66 0.68 5.32 0 6 C-1.32 6 -2.64 6 -4 6 C-3.0022242 3.00667261 -2.2477975 2.05233685 0 0 Z " fill="#2F83BE" transform="translate(594,35)"/>
</svg>
